<?xml version="1.0" encoding="utf-8"?>
<svg version="1.1" xmlns:xlink="http://www.w3.org/1999/xlink" width="32px" height="32px" xmlns="http://www.w3.org/2000/svg">
  <g transform="matrix(1 0 0 1 -109 -10 )">
    <path d="M 109 10  L 141 10  L 141 42  L 109 42  L 109 10  " fill-rule="nonzero" fill="#cccccc" stroke="none" />
    <path d="M 111 12  L 139 12  L 139 40  L 111 40  L 111 12  " fill-rule="nonzero" fill="#ffffff" stroke="none" />
    <path d="M 128.04 19.6  C 126.696 19.6  125.64 18.544  125.64 17.2  C 125.64 15.856  126.696 14.8  128.04 14.8  C 129.384 14.8  130.44 15.856  130.44 17.2  C 130.44 18.544  129.384 19.6  128.04 19.6  " fill-rule="nonzero" fill="#cccccc" stroke="none" />
    <path d="M 112 39  L 112 24.7  L 118.5 18.2  L 127.6 23.4  L 132.8 22.1  L 138 23.4  L 138 39  L 112 39  " fill-rule="nonzero" fill="#169bd5" stroke="none" />
  </g>
</svg>