<?xml version="1.0" encoding="utf-8"?>
<svg version="1.1" xmlns:xlink="http://www.w3.org/1999/xlink" width="119px" height="72px" xmlns="http://www.w3.org/2000/svg">
  <defs>
    <filter x="-8px" y="-6px" width="119px" height="72px" filterUnits="userSpaceOnUse" id="filter72">
      <feOffset dx="2" dy="4" in="SourceAlpha" result="shadowOffsetInner" />
      <feGaussianBlur stdDeviation="5" in="shadowOffsetInner" result="shadowGaussian" />
      <feComposite in2="shadowGaussian" operator="atop" in="SourceAlpha" result="shadowComposite" />
      <feColorMatrix type="matrix" values="0 0 0 0 0.454901960784314  0 0 0 0 0.572549019607843  0 0 0 0 0.572549019607843  0 0 0 0.317647058823529 0  " in="shadowComposite" />
    </filter>
    <g id="widget73">
      <path d="M 1 8  A 7 7 0 0 1 8 1 L 91 1  A 7 7 0 0 1 98 8 L 98 44  A 7 7 0 0 1 91 51 L 8 51  A 7 7 0 0 1 1 44 L 1 8  Z " fill-rule="nonzero" fill="#e5e5e5" stroke="none" fill-opacity="0.768627450980392" />
      <path d="M 0.5 8  A 7.5 7.5 0 0 1 8 0.5 L 91 0.5  A 7.5 7.5 0 0 1 98.5 8 L 98.5 44  A 7.5 7.5 0 0 1 91 51.5 L 8 51.5  A 7.5 7.5 0 0 1 0.5 44 L 0.5 8  Z " stroke-width="1" stroke="#e5e5e5" fill="none" stroke-opacity="0.768627450980392" />
    </g>
  </defs>
  <g transform="matrix(1 0 0 1 8 6 )">
    <use xlink:href="#widget73" filter="url(#filter72)" />
    <use xlink:href="#widget73" />
  </g>
</svg>