<?xml version="1.0" encoding="utf-8"?>
<svg version="1.1" xmlns:xlink="http://www.w3.org/1999/xlink" width="20px" height="19px" xmlns="http://www.w3.org/2000/svg">
  <defs>
    <mask fill="white" id="clip71">
      <path d="M 12.265625 11.65234375  C 13.3193108974359 10.6513421474359  13.8461538461538 9.44671474358974  13.8461538461538 8.03846153846154  C 13.8461538461538 6.63020833333333  13.3193108974359 5.42558092948718  12.265625 4.42457932692308  C 11.2119391025641 3.42357772435897  9.94391025641026 2.92307692307692  8.46153846153846 2.92307692307692  C 6.97916666666667 2.92307692307692  5.71113782051282 3.42357772435897  4.65745192307692 4.42457932692308  C 3.60376602564103 5.42558092948718  3.07692307692308 6.63020833333333  3.07692307692308 8.03846153846154  C 3.07692307692308 9.44671474358974  3.60376602564103 10.6513421474359  4.65745192307692 11.65234375  C 5.71113782051282 12.6533453525641  6.97916666666667 13.1538461538462  8.46153846153846 13.1538461538462  C 9.94391025641026 13.1538461538462  11.2119391025641 12.6533453525641  12.265625 11.65234375  Z M 19.5552884615385 16.5108173076923  C 19.8517628205128 16.7924679487179  20 17.135016025641  20 17.5384615384615  C 20 17.9342948717949  19.8477564102564 18.2768429487179  19.5432692307692 18.5661057692308  C 19.2387820512821 18.8553685897436  18.8782051282051 19  18.4615384615385 19  C 18.0288461538462 19  17.6682692307692 18.8553685897436  17.3798076923077 18.5661057692308  L 13.2572115384615 14.6610576923077  C 11.8229166666667 15.604967948718  10.224358974359 16.0769230769231  8.46153846153846 16.0769230769231  C 7.31570512820513 16.0769230769231  6.21995192307692 15.8656850961538  5.17427884615385 15.4432091346154  C 4.12860576923077 15.0207331730769  3.22716346153846 14.4498197115385  2.46995192307692 13.73046875  C 1.71274038461538 13.0111177884615  1.11177884615385 12.1547475961538  0.667067307692308 11.1613581730769  C 0.222355769230769 10.16796875  0 9.1270032051282  0 8.03846153846154  C 0 6.94991987179487  0.222355769230769 5.90895432692308  0.667067307692308 4.91556490384615  C 1.11177884615385 3.92217548076923  1.71274038461538 3.06580528846154  2.46995192307692 2.34645432692308  C 3.22716346153846 1.62710336538462  4.12860576923077 1.05618990384615  5.17427884615385 0.633713942307693  C 6.21995192307692 0.21123798076923  7.31570512820513 0  8.46153846153846 0  C 9.6073717948718 0  10.703125 0.21123798076923  11.7487980769231 0.633713942307693  C 12.7944711538462 1.05618990384615  13.6959134615385 1.62710336538462  14.453125 2.34645432692308  C 15.2103365384615 3.06580528846154  15.8112980769231 3.92217548076923  16.2560096153846 4.91556490384615  C 16.7007211538462 5.90895432692308  16.9230769230769 6.94991987179487  16.9230769230769 8.03846153846154  C 16.9230769230769 9.71314102564103  16.4262820512821 11.2317708333333  15.4326923076923 12.5943509615385  L 19.5552884615385 16.5108173076923  Z " fill-rule="evenodd" />
    </mask>
  </defs>
  <g transform="matrix(1 0 0 1 -8 -104 )">
    <path d="M 12.265625 11.65234375  C 13.3193108974359 10.6513421474359  13.8461538461538 9.44671474358974  13.8461538461538 8.03846153846154  C 13.8461538461538 6.63020833333333  13.3193108974359 5.42558092948718  12.265625 4.42457932692308  C 11.2119391025641 3.42357772435897  9.94391025641026 2.92307692307692  8.46153846153846 2.92307692307692  C 6.97916666666667 2.92307692307692  5.71113782051282 3.42357772435897  4.65745192307692 4.42457932692308  C 3.60376602564103 5.42558092948718  3.07692307692308 6.63020833333333  3.07692307692308 8.03846153846154  C 3.07692307692308 9.44671474358974  3.60376602564103 10.6513421474359  4.65745192307692 11.65234375  C 5.71113782051282 12.6533453525641  6.97916666666667 13.1538461538462  8.46153846153846 13.1538461538462  C 9.94391025641026 13.1538461538462  11.2119391025641 12.6533453525641  12.265625 11.65234375  Z M 19.5552884615385 16.5108173076923  C 19.8517628205128 16.7924679487179  20 17.135016025641  20 17.5384615384615  C 20 17.9342948717949  19.8477564102564 18.2768429487179  19.5432692307692 18.5661057692308  C 19.2387820512821 18.8553685897436  18.8782051282051 19  18.4615384615385 19  C 18.0288461538462 19  17.6682692307692 18.8553685897436  17.3798076923077 18.5661057692308  L 13.2572115384615 14.6610576923077  C 11.8229166666667 15.604967948718  10.224358974359 16.0769230769231  8.46153846153846 16.0769230769231  C 7.31570512820513 16.0769230769231  6.21995192307692 15.8656850961538  5.17427884615385 15.4432091346154  C 4.12860576923077 15.0207331730769  3.22716346153846 14.4498197115385  2.46995192307692 13.73046875  C 1.71274038461538 13.0111177884615  1.11177884615385 12.1547475961538  0.667067307692308 11.1613581730769  C 0.222355769230769 10.16796875  0 9.1270032051282  0 8.03846153846154  C 0 6.94991987179487  0.222355769230769 5.90895432692308  0.667067307692308 4.91556490384615  C 1.11177884615385 3.92217548076923  1.71274038461538 3.06580528846154  2.46995192307692 2.34645432692308  C 3.22716346153846 1.62710336538462  4.12860576923077 1.05618990384615  5.17427884615385 0.633713942307693  C 6.21995192307692 0.21123798076923  7.31570512820513 0  8.46153846153846 0  C 9.6073717948718 0  10.703125 0.21123798076923  11.7487980769231 0.633713942307693  C 12.7944711538462 1.05618990384615  13.6959134615385 1.62710336538462  14.453125 2.34645432692308  C 15.2103365384615 3.06580528846154  15.8112980769231 3.92217548076923  16.2560096153846 4.91556490384615  C 16.7007211538462 5.90895432692308  16.9230769230769 6.94991987179487  16.9230769230769 8.03846153846154  C 16.9230769230769 9.71314102564103  16.4262820512821 11.2317708333333  15.4326923076923 12.5943509615385  L 19.5552884615385 16.5108173076923  Z " fill-rule="nonzero" fill="#b0b3b2" stroke="none" transform="matrix(1 0 0 1 8 104 )" />
    <path d="M 12.265625 11.65234375  C 13.3193108974359 10.6513421474359  13.8461538461538 9.44671474358974  13.8461538461538 8.03846153846154  C 13.8461538461538 6.63020833333333  13.3193108974359 5.42558092948718  12.265625 4.42457932692308  C 11.2119391025641 3.42357772435897  9.94391025641026 2.92307692307692  8.46153846153846 2.92307692307692  C 6.97916666666667 2.92307692307692  5.71113782051282 3.42357772435897  4.65745192307692 4.42457932692308  C 3.60376602564103 5.42558092948718  3.07692307692308 6.63020833333333  3.07692307692308 8.03846153846154  C 3.07692307692308 9.44671474358974  3.60376602564103 10.6513421474359  4.65745192307692 11.65234375  C 5.71113782051282 12.6533453525641  6.97916666666667 13.1538461538462  8.46153846153846 13.1538461538462  C 9.94391025641026 13.1538461538462  11.2119391025641 12.6533453525641  12.265625 11.65234375  Z " stroke-width="2" stroke="#e5ebf0" fill="none" transform="matrix(1 0 0 1 8 104 )" mask="url(#clip71)" />
    <path d="M 19.5552884615385 16.5108173076923  C 19.8517628205128 16.7924679487179  20 17.135016025641  20 17.5384615384615  C 20 17.9342948717949  19.8477564102564 18.2768429487179  19.5432692307692 18.5661057692308  C 19.2387820512821 18.8553685897436  18.8782051282051 19  18.4615384615385 19  C 18.0288461538462 19  17.6682692307692 18.8553685897436  17.3798076923077 18.5661057692308  L 13.2572115384615 14.6610576923077  C 11.8229166666667 15.604967948718  10.224358974359 16.0769230769231  8.46153846153846 16.0769230769231  C 7.31570512820513 16.0769230769231  6.21995192307692 15.8656850961538  5.17427884615385 15.4432091346154  C 4.12860576923077 15.0207331730769  3.22716346153846 14.4498197115385  2.46995192307692 13.73046875  C 1.71274038461538 13.0111177884615  1.11177884615385 12.1547475961538  0.667067307692308 11.1613581730769  C 0.222355769230769 10.16796875  0 9.1270032051282  0 8.03846153846154  C 0 6.94991987179487  0.222355769230769 5.90895432692308  0.667067307692308 4.91556490384615  C 1.11177884615385 3.92217548076923  1.71274038461538 3.06580528846154  2.46995192307692 2.34645432692308  C 3.22716346153846 1.62710336538462  4.12860576923077 1.05618990384615  5.17427884615385 0.633713942307693  C 6.21995192307692 0.21123798076923  7.31570512820513 0  8.46153846153846 0  C 9.6073717948718 0  10.703125 0.21123798076923  11.7487980769231 0.633713942307693  C 12.7944711538462 1.05618990384615  13.6959134615385 1.62710336538462  14.453125 2.34645432692308  C 15.2103365384615 3.06580528846154  15.8112980769231 3.92217548076923  16.2560096153846 4.91556490384615  C 16.7007211538462 5.90895432692308  16.9230769230769 6.94991987179487  16.9230769230769 8.03846153846154  C 16.9230769230769 9.71314102564103  16.4262820512821 11.2317708333333  15.4326923076923 12.5943509615385  L 19.5552884615385 16.5108173076923  Z " stroke-width="2" stroke="#e5ebf0" fill="none" transform="matrix(1 0 0 1 8 104 )" mask="url(#clip71)" />
  </g>
</svg>