<?xml version="1.0" encoding="utf-8"?>
<svg version="1.1" xmlns:xlink="http://www.w3.org/1999/xlink" width="36px" height="32px" xmlns="http://www.w3.org/2000/svg">
  <g transform="matrix(1 0 0 1 -428 -326 )">
    <path d="M 6.54545454545455 23.2727272727273  L 9.81818181818182 23.2727272727273  L 9.81818181818182 26.1818181818182  L 6.54545454545455 26.1818181818182  L 6.54545454545455 23.2727272727273  Z M 6.54545454545455 5.81818181818182  L 9.81818181818182 5.81818181818182  L 9.81818181818182 8.72727272727273  L 6.54545454545455 8.72727272727273  L 6.54545454545455 5.81818181818182  Z M 26.1818181818182 5.81818181818182  L 29.4545454545455 5.81818181818182  L 29.4545454545455 8.72727272727273  L 26.1818181818182 8.72727272727273  L 26.1818181818182 5.81818181818182  Z M 3.27272727272727 20.3636363636364  L 3.27272727272727 29.0681818181818  L 13.0909090909091 29.0681818181818  L 13.0909090909091 20.3636363636364  L 3.27272727272727 20.3636363636364  Z M 3.27272727272727 2.90909090909091  L 3.27272727272727 11.6363636363636  L 13.0909090909091 11.6363636363636  L 13.0909090909091 2.90909090909091  L 3.27272727272727 2.90909090909091  Z M 22.9090909090909 2.90909090909091  L 22.9090909090909 11.6363636363636  L 32.7272727272727 11.6363636363636  L 32.7272727272727 2.90909090909091  L 22.9090909090909 2.90909090909091  Z M 0 17  L 17 17  L 17 32  L 0 32  L 0 17  Z M 26.1818181818182 29.0909090909091  L 29.4545454545455 29.0909090909091  L 29.4545454545455 32  L 26.1818181818182 32  L 26.1818181818182 29.0909090909091  Z M 32.7272727272727 29.0909090909091  L 36 29.0909090909091  L 36 32  L 32.7272727272727 32  L 32.7272727272727 29.0909090909091  Z M 32.7272727272727 17.4545454545455  L 36 17.4545454545455  L 36 26.1818181818182  L 26.1818181818182 26.1818181818182  L 26.1818181818182 23.2727272727273  L 22.9090909090909 23.2727272727273  L 22.9090909090909 32  L 19 32  L 19 17  L 29.4545454545455 17  L 29.4545454545455 20.3636363636364  L 32.7272727272727 20.3636363636364  L 32.7272727272727 17.4545454545455  Z M 0 0  L 17 0  L 17 15  L 0 15  L 0 0  Z M 19 0  L 36 0  L 36 15  L 19 15  L 19 0  Z " fill-rule="nonzero" fill="#b8babc" stroke="none" transform="matrix(1 0 0 1 428 326 )" />
  </g>
</svg>