<?xml version="1.0" encoding="utf-8"?>
<svg version="1.1" xmlns:xlink="http://www.w3.org/1999/xlink" width="12px" height="1px" xmlns="http://www.w3.org/2000/svg">
  <g transform="matrix(1 0 0 1 -418 -17 )">
    <path d="M 11.6852678571429 0.091796875  C 11.8950892857143 0.152994791666667  12 0.2265625  12 0.3125  L 12 0.6875  C 12 0.7734375  11.8950892857143 0.847005208333333  11.6852678571429 0.908203125  C 11.4754464285714 0.969401041666667  11.2232142857143 1  10.9285714285714 1  L 1.07142857142857 1  C 0.776785714285714 1  0.524553571428572 0.969401041666667  0.314732142857143 0.908203125  C 0.104910714285714 0.847005208333333  0 0.7734375  0 0.6875  L 0 0.3125  C 0 0.2265625  0.104910714285714 0.152994791666667  0.314732142857143 0.091796875  C 0.524553571428572 0.0305989583333335  0.776785714285714 0  1.07142857142857 0  L 10.9285714285714 0  C 11.2232142857143 0  11.4754464285714 0.0305989583333335  11.6852678571429 0.091796875  Z " fill-rule="nonzero" fill="#ffffff" stroke="none" transform="matrix(1 0 0 1 418 17 )" />
  </g>
</svg>