<?xml version="1.0" encoding="utf-8"?>
<svg version="1.1" xmlns:xlink="http://www.w3.org/1999/xlink" width="22px" height="25px" xmlns="http://www.w3.org/2000/svg">
  <g transform="matrix(1 0 0 1 -105 -246 )">
    <path d="M 6.11111111111111 7.95454545454546  L 6.11111111111111 11.3636363636364  L 15.8888888888889 11.3636363636364  L 15.8888888888889 7.95454545454546  C 15.8888888888889 6.6998106060606  15.4114583333333 5.62855113636363  14.4565972222222 4.74076704545454  C 13.5017361111111 3.85298295454546  12.349537037037 3.40909090909091  11 3.40909090909091  C 9.65046296296296 3.40909090909091  8.49826388888889 3.85298295454546  7.54340277777778 4.74076704545454  C 6.58854166666667 5.62855113636363  6.11111111111111 6.6998106060606  6.11111111111111 7.95454545454546  Z M 21.4652777777778 11.8607954545455  C 21.8217592592593 12.1922348484848  22 12.594696969697  22 13.0681818181818  L 22 23.2954545454545  C 22 23.7689393939394  21.8217592592593 24.1714015151515  21.4652777777778 24.5028409090909  C 21.1087962962963 24.8342803030303  20.6759259259259 25  20.1666666666667 25  L 1.83333333333333 25  C 1.32407407407407 25  0.891203703703704 24.8342803030303  0.534722222222222 24.5028409090909  C 0.178240740740741 24.1714015151515  0 23.7689393939394  0 23.2954545454545  L 0 13.0681818181818  C 0 12.594696969697  0.178240740740741 12.1922348484848  0.534722222222222 11.8607954545455  C 0.891203703703704 11.5293560606061  1.32407407407407 11.3636363636364  1.83333333333333 11.3636363636364  L 2.44444444444444 11.3636363636364  L 2.44444444444444 7.95454545454546  C 2.44444444444444 5.77651515151515  3.28472222222222 3.90625  4.96527777777778 2.34375  C 6.64583333333333 0.78125  8.65740740740741 0  11 0  C 13.3425925925926 0  15.3541666666667 0.78125  17.0347222222222 2.34375  C 18.7152777777778 3.90625  19.5555555555556 5.77651515151515  19.5555555555556 7.95454545454546  L 19.5555555555556 11.3636363636364  L 20.1666666666667 11.3636363636364  C 20.6759259259259 11.3636363636364  21.1087962962963 11.5293560606061  21.4652777777778 11.8607954545455  Z " fill-rule="nonzero" fill="#b8babc" stroke="none" transform="matrix(1 0 0 1 105 246 )" />
  </g>
</svg>