<?xml version="1.0" encoding="utf-8"?>
<svg version="1.1" xmlns:xlink="http://www.w3.org/1999/xlink" width="22px" height="27px" xmlns="http://www.w3.org/2000/svg">
  <g transform="matrix(1 0 0 1 -105 -244 )">
    <path d="M 6.11111111111111 13  L 20.1666666666667 13  C 20.6759259259259 13.5  21.1087962962963 13.6640625  21.4652777777778 13.9921875  C 21.8217592592593 14.3203125  22 14.71875  22 15.1875  L 22 25.3125  C 22 25.78125  21.8217592592593 26.1796875  21.4652777777778 26.5078125  C 21.1087962962963 26.8359375  20.6759259259259 27  20.1666666666667 27  L 1.83333333333333 27  C 1.32407407407407 27  0.891203703703704 26.8359375  0.534722222222222 26.5078125  C 0.178240740740741 26.1796875  0 25.78125  0 25.3125  L 0 15.1875  C 0 14.71875  0.178240740740741 14.3203125  0.534722222222222 13.9921875  C 0.891203703703704 13.6640625  1.32407407407407 13.5  1.83333333333333 13.5  L 2.44444444444444 13.5  L 2.44444444444444 7.875  C 2.44444444444444 5.70703125  3.28153935185185 3.8525390625  4.95572916666667 2.3115234375  C 6.62991898148148 0.770507812500002  8.64467592592593 0  11 0  C 13.3553240740741 0  15.3700810185185 0.770507812500002  17.0442708333333 2.3115234375  C 18.7184606481481 3.8525390625  19.5555555555556 5.70703125  19.5555555555556 7.875  C 19.5555555555556 8.1796875  19.4346064814815 8.443359375  19.1927083333333 8.666015625  C 18.9508101851852 8.888671875  18.6643518518519 9  18.3333333333333 9  L 17.1111111111111 9  C 16.7800925925926 9  16.4936342592593 8.888671875  16.2517361111111 8.666015625  C 16.009837962963 8.443359375  15.8888888888889 8.1796875  15.8888888888889 7.875  C 15.8888888888889 6.6328125  15.4114583333333 5.572265625  14.4565972222222 4.693359375  C 13.5017361111111 3.814453125  12.349537037037 3.375  11 3.375  C 9.65046296296296 3.375  8.49826388888889 3.814453125  7.54340277777778 4.693359375  C 6.58854166666667 5.572265625  6.11111111111111 6.6328125  6.11111111111111 7.875  L 6.11111111111111 13  Z " fill-rule="nonzero" fill="#12b7f5" stroke="none" transform="matrix(1 0 0 1 105 244 )" />
  </g>
</svg>