<?xml version="1.0" encoding="utf-8"?>
<svg version="1.1" xmlns:xlink="http://www.w3.org/1999/xlink" width="22px" height="26px" xmlns="http://www.w3.org/2000/svg">
  <g transform="matrix(1 0 0 1 -104 -209 )">
    <path d="M 0 18.4553571428571  C 0 15.7953869047619  1.05239179954442 13.5416666666667  3.15717539863326 11.6941964285714  C 3.09035687167806 11.5104166666667  3.05694760820046 11.2589285714286  3.05694760820046 10.9397321428571  C 3.05694760820046 10.7462797619048  3.10288534548216 10.5093005952381  3.19476082004556 10.2287946428571  C 3.28663629460896 9.94828869047619  3.38686408504176 9.73065476190476  3.49544419134396 9.57589285714286  C 3.48709187547456 9.36309523809524  3.51841305998481 9.10677083333333  3.58940774487472 8.80691964285714  C 3.66040242976462 8.50706845238095  3.75436598329537 8.29910714285714  3.87129840546697 8.18303571428572  C 3.87129840546697 6.83854166666666  4.25759301442673 5.44326636904762  5.03018223234624 3.99720982142857  C 5.80277145026576 2.55115327380952  6.71108580106302 1.53794642857143  7.75512528473804 0.957589285714284  C 8.91609719058466 0.319196428571428  10.2691723614275 0  11.8143507972665 0  C 12.9252088078967 0  14.036066818527 0.265997023809527  15.1469248291572 0.797991071428572  C 15.5561883067578 1.00111607142857  15.9320425208808 1.23325892857143  16.2744874715262 1.49441964285714  C 16.6169324221716 1.75558035714286  16.9134396355353 2.02641369047619  17.1640091116173 2.30691964285714  C 17.4145785876993 2.58742559523809  17.6442672741078 2.91629464285714  17.8530751708428 3.29352678571428  C 18.0618830675778 3.67075892857143  18.2372817008352 4.02864583333333  18.379271070615 4.3671875  C 18.5212604403948 4.70572916666666  18.6569855732726 5.11439732142857  18.7864464692483 5.59319196428572  C 18.915907365224 6.07198660714286  19.0223993925588 6.50483630952381  19.1059225512528 6.89174107142857  C 19.1894457099468 7.27864583333333  19.2813211845103 7.75260416666666  19.3815489749431 8.31361607142857  L 19.3940774487472 8.38616071428572  C 19.8534548215642 9.18898809523809  20.0831435079727 9.91443452380952  20.0831435079727 10.5625  C 20.0831435079727 10.6979166666667  20.0455580865604 10.891369047619  19.9703872437358 11.1428571428571  C 19.8952164009112 11.3943452380952  19.8576309794989 11.578125  19.8576309794989 11.6941964285714  C 19.8576309794989 11.703869047619  19.8638952164009 11.7207961309524  19.876423690205 11.7449776785714  C 19.8889521640091 11.7691592261905  19.9035687167806 11.7933407738095  19.9202733485194 11.8175223214286  C 19.9369779802582 11.8417038690476  19.9453302961276 11.858630952381  19.9453302961276 11.8683035714286  C 20.5884586180714 12.9709821428571  21.0916856492027 14.0083705357143  21.4550113895216 14.98046875  C 21.8183371298405 15.9525669642857  22 16.9609375  22 18.0055803571429  C 22 18.4215029761905  21.9185649202733 18.9051339285714  21.75569476082 19.4564732142857  C 21.5928246013667 20.0078125  21.3610478359909 20.2834821428571  21.0603644646925 20.2834821428571  C 20.9851936218679 20.2834821428571  20.9037585421412 20.2472098214286  20.8160592255125 20.1746651785714  C 20.7283599088838 20.1021205357143  20.6490129081245 20.0174851190476  20.5780182232346 19.9207589285714  C 20.5070235383447 19.8240327380952  20.4276765375854 19.6982886904762  20.3399772209567 19.5435267857143  C 20.252277904328 19.3887648809524  20.1854593773728 19.2606026785714  20.1395216400911 19.1590401785714  C 20.0935839028094 19.0574776785714  20.037205770691 18.9317336309524  19.9703872437358 18.7818080357143  C 19.9035687167806 18.6318824404762  19.8659832953683 18.5472470238095  19.8576309794989 18.5279017857143  C 19.8492786636295 18.5182291666667  19.8367501898254 18.5133928571429  19.8200455580866 18.5133928571429  L 19.7574031890661 18.5714285714286  C 19.2646165527714 20.0610119047619  18.713363705391 21.1395089285714  18.1036446469248 21.8069196428571  C 18.2706909643128 22.0003720238095  18.5275246772969 22.1865699404762  18.874145785877 22.3655133928571  C 19.2207668944571 22.5444568452381  19.5089217919514 22.7451636904762  19.7386104783599 22.9676339285714  C 19.9682991647684 23.1901041666667  20.1165527714503 23.5044642857143  20.1833712984055 23.9107142857143  C 20.1666666666667 23.9494047619048  20.1499620349279 24.0267857142857  20.1332574031891 24.1428571428571  C 20.1165527714503 24.2589285714286  20.0873196659074 24.3459821428571  20.0455580865604 24.4040178571429  C 19.5110098709188 25.3422619047619  18.2498101746393 25.8113839285714  16.2619589977221 25.8113839285714  C 15.8192862566439 25.8113839285714  15.3578208048595 25.7678571428571  14.877562642369 25.6808035714286  C 14.3973044798785 25.59375  13.9880410022779 25.4970238095238  13.6497722095672 25.390625  C 13.3115034168565 25.2842261904762  12.8750949126803 25.1391369047619  12.3405466970387 24.9553571428571  C 12.2152619589977 24.906994047619  12.1192103264996 24.8731398809524  12.0523917995444 24.8537946428571  C 11.9354593773728 24.8151041666667  11.7433561123766 24.7933407738095  11.4760820045558 24.7885044642857  C 11.208807896735 24.7836681547619  11.041761579347 24.7764136904762  10.9749430523918 24.7667410714286  C 10.6324981017464 25.2020089285714  10.1000379650721 25.516369047619  9.37756264236902 25.7098214285714  C 8.65508731966591 25.9032738095238  7.95140470766895 26  7.26651480637813 26  C 6.97418375094913 26  6.68602885345482 25.9927455357143  6.40205011389522 25.9782366071429  C 6.11807137433561 25.9637276785714  5.7296886864085 25.9202008928571  5.2369020501139 25.84765625  C 4.74411541381929 25.7751116071429  4.32232346241458 25.6759672619048  3.97152619589977 25.5502232142857  C 3.62072892938497 25.4244791666667  3.30960516324981 25.2310267857143  3.03815489749431 24.9698660714286  C 2.7667046317388 24.7087053571429  2.63097949886105 24.399181547619  2.63097949886105 24.0412946428571  C 2.63097949886105 23.6543898809524  2.67274107820805 23.3666294642857  2.75626423690205 23.1780133928571  C 2.83978739559605 22.9893973214286  3.01100987091875 22.7548363095238  3.26993166287016 22.4743303571429  C 3.36180713743356 22.4549851190476  3.53094153378891 22.3921130952381  3.77733485193622 22.2857142857143  C 4.02372817008352 22.1793154761905  4.23044798785118 22.1212797619048  4.39749430523918 22.1116071428571  C 4.43090356871678 22.1116071428571  4.48936977980258 22.1019345238095  4.57289293849658 22.0825892857143  C 4.58959757023538 22.063244047619  4.59794988610478 22.0438988095238  4.59794988610478 22.0245535714286  L 4.57289293849658 21.9810267857143  C 4.17198177676538 21.8746279761905  3.72095671981777 21.3643973214286  3.21981776765376 20.4503348214286  C 2.71867881548975 19.5362723214286  2.41381928625664 18.7793898809524  2.30523917995444 18.1796875  L 2.24259681093394 18.1361607142857  C 2.20918754745634 18.1361607142857  2.15907365223994 18.2328869047619  2.09225512528474 18.4263392857143  C 1.94191343963554 18.8229166666667  1.71431283219438 19.1832217261905  1.40945330296128 19.5072544642857  C 1.10459377372817 19.831287202381  0.780941533788914 20.0126488095238  0.438496583143508 20.0513392857143  L 0.425968109339408 20.0513392857143  C 0.392558845861807 20.0513392857143  0.367501898253607 20.0295758928571  0.350797266514806 19.9860491071429  C 0.334092634776006 19.9425223214286  0.313211845102506 19.9159226190476  0.288154897494305 19.90625  C 0.0960516324981018 19.3839285714286  0 18.9002976190476  0 18.4553571428571  Z " fill-rule="nonzero" fill="#12b7f5" stroke="none" transform="matrix(1 0 0 1 104 209 )" />
  </g>
</svg>